<svg id="Group_15" data-name="Group 15" xmlns="http://www.w3.org/2000/svg" xmlns:xlink="http://www.w3.org/1999/xlink" width="123.268" height="89.908" viewBox="0 0 123.268 89.908">
  <defs>
    <clipPath id="clip-path">
      <rect id="Rectangle_38" data-name="Rectangle 38" width="123.268" height="89.908" fill="#dd0a16"/>
    </clipPath>
  </defs>
  <g id="Group_8" data-name="Group 8" clip-path="url(#clip-path)">
    <path id="Path_7" data-name="Path 7" d="M83.976,58.172a23.873,23.873,0,0,0,9.181,18.916c-11.108,6.467-13.943,19.2-15.055,28.948a3.729,3.729,0,1,0,7.41.845c1.776-15.569,6.986-23.247,17.421-25.672a3.729,3.729,0,0,0,.238-7.2,16.549,16.549,0,1,1,9.622,0,3.729,3.729,0,0,0,.238,7.2c10.437,2.426,15.646,10.1,17.422,25.672a3.729,3.729,0,1,0,7.41-.845c-1.111-9.747-3.946-22.481-15.055-28.948A24.018,24.018,0,1,0,83.976,58.172" transform="translate(-46.349 -20.281)" fill="#dd0a16"/>
    <path id="Path_8" data-name="Path 8" d="M190.166,12.863a16.549,16.549,0,1,1,17.045,26.98,3.729,3.729,0,0,0,.238,7.2c10.436,2.426,15.646,10.1,17.421,25.672a3.729,3.729,0,0,0,7.41-.845c-1.111-9.747-3.946-22.481-15.055-28.948A24.02,24.02,0,1,0,184.653,7.839a3.729,3.729,0,0,0,5.512,5.024" transform="translate(-109.037)" fill="#dd0a16"/>
    <path id="Path_9" data-name="Path 9" d="M3.734,76.023a3.729,3.729,0,0,0,3.7-3.307C9.21,57.148,14.42,49.47,24.856,47.044a3.729,3.729,0,0,0,.238-7.2A16.549,16.549,0,1,1,42.139,12.863a3.729,3.729,0,0,0,5.512-5.024A24.018,24.018,0,1,0,15.079,42.924C3.971,49.39,1.136,62.124.024,71.871A3.729,3.729,0,0,0,3.307,76a3.8,3.8,0,0,0,.427.024" transform="translate(0)" fill="#dd0a16"/>
  </g>
</svg>
