<svg xmlns="http://www.w3.org/2000/svg" width="142.377" height="92.396" viewBox="0 0 142.377 92.396">
  <g id="Group_3832" data-name="Group 3832" transform="translate(-330.812 -2331.802)">
    <path id="Path_305" data-name="Path 305" d="M3.651,52.813q13.911.051,27.823.094c.595,0,1.191,0,2.007,0-.308.834-.485,1.457-.76,2.034-3.3,6.943-8.842,10.575-16.475,11.117-2.17.154-3.069.969-3.078,2.943q-.045,10.181,0,20.362c.01,2.093,1.064,3.1,3.128,3.029,1.769-.06,3.543-.168,5.3-.387C43.28,89.291,60.191,70.7,60.537,48.842c.241-15.191.073-30.39.073-45.585,0-2.432-.9-3.25-3.518-3.251Q30.333-.006,3.574.006C.764.007,0,.809,0,3.658Q0,26.375,0,49.092c0,2.938.755,3.711,3.65,3.721" transform="translate(330.811 2331.802)" fill="#dd0a16"/>
    <path id="Path_306" data-name="Path 306" d="M142.362,47.195c.03-14.54.007-29.081,0-43.621,0-2.7-.835-3.566-3.526-3.567q-26.766-.014-53.53,0c-2.768,0-3.557.791-3.557,3.5q-.006,22.8,0,45.6c0,2.966.722,3.7,3.645,3.707q13.837.051,27.677.094c.6,0,1.195,0,2.121,0-.32.866-.488,1.443-.739,1.981-3.259,6.981-8.81,10.6-16.437,11.167-2.381.177-3.109.965-3.11,3.355q-.008,9.955,0,19.911c0,2.109,1.006,3.19,3.065,3.058a58.851,58.851,0,0,0,8.446-.882,44.868,44.868,0,0,0,35.937-44.3" transform="translate(330.811 2331.802)" fill="#dd0a16"/>
  </g>
</svg>
