<svg xmlns="http://www.w3.org/2000/svg" width="514.339" height="917.768" viewBox="0 0 514.339 917.768">
  <g id="Group_3835" data-name="Group 3835" transform="translate(-3118.909 -1772.564)">
    <path id="Path_4119" data-name="Path 4119" d="M143.715,139.978c-25.572-3.081-10.588,40.058,3.931,48.876,5.808,18.229,20.056,42.375,42.07,56.126v18.346l-12.847,5.184-4.744,35.465s26.866,48.694,105.054-6.417c0,0-9.614-37.569-5.9-62.322,0,0,23.465-20.46,31.084-43.623,0,0,26.887-11.687,26.245-34.646s-21.426-19.263-21.426-19.263C301.187,29.7,138.285-9.5,143.715,139.978" transform="translate(3136.393 1778.189)" fill="#fff"/>
    <path id="Path_4120" data-name="Path 4120" d="M46.359,212.775,11.828,243.752s-5.159,8.589-3.311,13.933C34.143,320.206,31.406,297.7,32.256,364.03L78.4,360.489l-1.321-36.853,8.041-37.148-5.313-60.036-20.182,2.874s-4.451-20.52-13.267-16.551" transform="translate(3120.002 1801.138)" fill="#fff"/>
    <path id="Path_4121" data-name="Path 4121" d="M372.176,815.726c-.01-52.694-2.686-88.012-5.762-105.638L97.059,723.351c.495.887,4.578,35.663,10.425,93.047Z" transform="translate(3131.976 1868.157)" fill="#464e53"/>
    <path id="Path_4122" data-name="Path 4122" d="M281.936,263.2s-38.726,35.9-73.776,31.346-36.185-26.8-36.185-26.8-33.9,124.027-27.452,178.116c7.469,146.474,3.627,218.677-13.546,352.676,0,0,66.41,13.494,119.973-6.428l-6.921-334.27,20.722-74.571s24.6-84.282,17.186-120.074" transform="translate(3136.542 1807.995)" fill="#fff"/>
    <path id="Path_4123" data-name="Path 4123" d="M204.755,235.378s-41.514,27.451-51.889,45.437C85.811,310.321,82.747,304.65,69.8,380.941c-38.553,10.921-60.478-2.589-60.478-2.589C16.431,397.358-4.17,676.191,119.164,578.4c2.2,21.7-36.906,201.112-39.143,207.6,0,0,33.681,34.07,59.159,41.152,0,0,15.734-82.493,20.233-144.3s4.761-141.456,4.761-141.456c2.778-74.594-10.777-220.875,40.581-306.016" transform="translate(3120.164 1804.25)" fill="#ff3e49"/>
    <path id="Path_4124" data-name="Path 4124" d="M274.907,235.378H261.973s8.512,27.361,8.349,52.322-35.264,156.768-35.264,156.768c-14.125,85.874-6.914,274.892,10.815,387.94,0,0,115.567-15.2,138.876-42.913,0,0,5.464-9.256-.448-29.785L343.4,588.044l18.4-105.711c42.458,92.643,47.84,15.044,17.043,141.842,0,0,42.63,15.013,60.863,39.764,4.029,5.467,49.537-112.423,33.758-164.084-7.767-25.427-70.526-170.031-93.854-190.3s-90.452-34.815-104.7-74.173" transform="translate(3149.548 1804.25)" fill="#ff3e49"/>
    <path id="Path_4125" data-name="Path 4125" d="M91.207,339.233l-73.88,7.045-1.784,23.352,75.664-4.2Z" transform="translate(3121.002 1818.231)" fill="#fff"/>
    <path id="Path_4126" data-name="Path 4126" d="M363.21,578.044l-2.728,12.108s32.262,14.733,42.264,45.034l19.069-17.378s-11.683-23.992-58.6-39.764" transform="translate(3167.439 1850.381)" fill="#fff"/>
    <path id="Path_4127" data-name="Path 4127" d="M375.015,591.481s-13.618,17.742-35,22.968-75.929,29.995-78.564,40.8,7.9,14.6,26.876,5.459L274,689.766s-2.544,9.314,12.74,7.819c0,0,2.635,9.045,9.222,6.937s20.289-11.067,20.289-11.067-2.635,15.46,10.276,10.1,19.981-18.9,19.981-18.9c35.536-6.83,35.235-40.354,68.125-55.306,0,0-16.435-29.7-39.622-37.87" transform="translate(3154.052 1852.19)" fill="#fff"/>
    <path id="Path_4128" data-name="Path 4128" d="M220.229,5.058s-49.843,3.467-66.542,33-27.327,47.914-27.447,84.261,4.108,33.609,4.108,33.609l19.857-11.608s6.242-78.719,41.3-69.926l13.355-13.937c28.1,31.758,58.345,57.8,103.713,73.235,0,0,23.074,22.637,23.26,21.295s6.263-65.687-16.8-97.849-44.568-59.047-94.81-52.08" transform="translate(3135.904 1773.094)" fill="#d8dbd9"/>
    <path id="Path_4129" data-name="Path 4129" d="M188.446,130.744c-9.76-4.71-12.1,15.223-3.122,16.271,8.475.97,9.423-12.808,3.122-16.271" transform="translate(3143.103 1790.067)" fill="#464e53"/>
    <path id="Path_4130" data-name="Path 4130" d="M240.639,129.985c-9.165.464-9.061,18.582.756,16.983,7.348-1.422,7.166-16.553-.756-16.983" transform="translate(3150.397 1790.061)" fill="#464e53"/>
    <path id="Path_4131" data-name="Path 4131" d="M253.3,128.915a4.922,4.922,0,0,0,6.45-1.177c4.507-8.079-9.176-11.973-15.155-12.421a27.016,27.016,0,0,0-19.025,5.8c-4.571,4.372,2.386,11.377,6.944,6.944,5.33-4.536,16.648-3.281,19.916.162l.043-.056a7.481,7.481,0,0,0,.827.744m-17.638-2.609c.121-.049.144-.056,0,0" transform="translate(3149.075 1788.075)" fill="#464e53"/>
    <path id="Path_4132" data-name="Path 4132" d="M198.28,127.66c7.56-13.233-24.946-15.81-30.616-7.545-4.462,4.5,2.5,11.484,6.944,6.943,4.017-2.716,9.743-2.517,14.2-.971,2.9,1.7,6.39,4.835,9.468,1.574m-23.227-1.095c.067-.077.053-.06,0,0m4.414-1.364c.032,0,.067-.007.1-.007a.823.823,0,0,1-.1.007m.607-.084h0" transform="translate(3141.287 1788.095)" fill="#464e53"/>
    <path id="Path_4133" data-name="Path 4133" d="M126.946,166.825c2.378,7.6,15.41,28.2,24.562,24.278a5.484,5.484,0,0,0,8.085-6.1q-3.12-20.786-6.24-41.57a5.732,5.732,0,0,0,2.955-4.81c1.123-22.924,3.2-47.806,18.7-65.8a13.814,13.814,0,0,1,3.3-1.837c3.458-.715,7.794-1.553,7.729-6.032-.533-7.916-10.164-5.455-14.8-2.664-21.151,16.914-23.867,47.39-25.653,72.662a5.375,5.375,0,0,0-1.154.553c-2.889-2.967-7.737-1.232-10.626.894-2.8-15.909-1.14-32.294,1.784-48.092.516-2.9-.785-5.878-3.81-6.71-2.639-.726-6.192.894-6.711,3.81-1.994,11.181-3.68,22.509-3.64,33.892a136.481,136.481,0,0,0,4.359,32.182,34,34,0,0,0,1.155,15.34M142,144.549a4.319,4.319,0,0,0,.54-.184q2.577,17.164,5.152,34.328c-8.557-5.884-17.861-28.485-5.692-34.144" transform="translate(3135.257 1780.587)" fill="#464e53"/>
    <path id="Path_4134" data-name="Path 4134" d="M137.989,80.976c7.31-26.024,22.9-51.537,48.825-62.306,6.759-2.119,3.961-12.438-2.9-10.521a88.8,88.8,0,0,0-37.075,29.187c-9.092,12.077-15.3,26.238-19.37,40.74-1.9,6.77,8.622,9.66,10.521,2.9" transform="translate(3136.038 1773.628)" fill="#464e53"/>
    <path id="Path_4135" data-name="Path 4135" d="M190.608,16.4c81.149-28.867,138.046,52.412,130.2,127.057a14.606,14.606,0,0,0-4.906-3.784c2.93-8.785-6.083-7.332-11.5-8.278a150.283,150.283,0,0,1-64.687-36.37c-13.407-13-22.911-31.145-40.593-38.963-26.984-9.555-28.1,11.641-14.514,8.762-4.13,4.494-3.633,13.1,4.076,11.715,4.261-1.411,4.773-6.872,7.892-9.719a31.794,31.794,0,0,1,3.554,2.056c-5.184,1.885-6.686,9.507-.678,11.314,3.673,1.026,6.2-2.437,9.381-3.6C231,104.778,258.71,128.962,293.57,139.772c-2.531,18.3-4.514,36.695-6.861,55.025-.359,2.93,2.767,5.455,5.458,5.455,18.491,2.357,29.869-16.373,32.988-32.406,10.27-3.546,6.456-50.35,5.3-60.68-5.4-46.99-37.579-93.36-84.983-104.978-9.142-3.9-64.523-3.764-61.578,10.4.74,2.69,3.92,4.8,6.711,3.81m121.2,158.116c.059-.138.109-.251,0,0m3.092-12.855c-1.122,10.523-5.716,23.823-16.59,27.554q2.459-20.037,4.921-40.071a4.739,4.739,0,0,0,3.653-.326,11.325,11.325,0,0,1,1.345-.012,9.365,9.365,0,0,1,3.663.983c2.968,2.765,3.163,7.963,3.009,11.873" transform="translate(3142.613 1772.563)" fill="#464e53"/>
    <path id="Path_4136" data-name="Path 4136" d="M207.256,167.786c4.221,4.8,10.894-2.6,5.471-6.066-4.22-4.8-10.894,2.6-5.471,6.066" transform="translate(3146.537 1794.122)" fill="#464e53"/>
    <path id="Path_4137" data-name="Path 4137" d="M215.106,202.049c2.817,7.506,10.636,1.2,14.38-2.157,4.06-3.668,13.367-12.7,4.765-16.36-12.4-2.483-25.287-1.009-37.823-.388a4.979,4.979,0,0,0-4.239,7.389c3.32,5.252,11.088,20.243,18.545,14.743,4.717-5.225-3.183-9-5.713-12.85,6.173-.287,12.311-.447,18.507-.38a39.078,39.078,0,0,1-4.383,3.424c-.245.169-1.927,1.078-.612.539-2.452,1-4.192,3.263-3.429,6.04" transform="translate(3144.7 1797.083)" fill="#464e53"/>
    <path id="Path_4138" data-name="Path 4138" d="M103.141,345.661c-11.511-3.23-7.08,26.984-8.321,33.971-.315,32.953.676,65.906,1.924,98.831,1.368,28.875,2.159,57.858,5.656,86.572,1.83,6.789,12.186,4.08,10.521-2.9-5.372-64.559-9.389-143.35-5.953-209.981.329-2.84-.81-5.663-3.827-6.491" transform="translate(3131.666 1819.064)" fill="#464e53"/>
    <path id="Path_4139" data-name="Path 4139" d="M288.86,269.913c5.186,4.864,12.733-2.689,7.715-7.715a80.905,80.905,0,0,1-12.9-12.687c-5.386-4.4-8.357-21-16.542-16.531-9.909,6.951,15.38,32.092,21.724,36.934" transform="translate(3154.566 1803.825)" fill="#464e53"/>
    <path id="Path_4140" data-name="Path 4140" d="M127.154,318.763c-14.95,13.035-10.429,33.774-10.165,51.3,2,35.038,3.56,70.588,11.873,104.794,1.9,6.748,12.431,3.88,10.521-2.9-5.26-19.813-6.9-40.388-8.829-60.738-1.652-24.2-4.249-48.713-2.935-72.918,2.986-10.861,13.729-17.216,21.653-24.408,2.8-2.041,3.777-5.873,1.105-8.568-4.793-4.83-7.706-10.537-10.477-17.049-1.153-2.712-5.15-3.311-7.464-1.957-7.124,5.215,3.225,16.807,6.255,22.149-3.884,3.375-7.744,6.826-11.538,10.3m6.782,124.35,0-.024c-.079-.583-.02-.151,0,.024" transform="translate(3134.545 1811.014)" fill="#464e53"/>
    <path id="Path_4141" data-name="Path 4141" d="M313.323,303.251c-1.406-6.464-7.021-35.611-16.77-29.816A5.608,5.608,0,0,0,294.6,280.9a91.986,91.986,0,0,1,7.608,21.67c-6.548,6.078-13.435,13.382-20.652,18.105a5.544,5.544,0,0,0-1.1,8.569c9.3,11.791,25.6,24.284,16.834,40.822-16.668,40.159-39.8,77.281-58.368,116.53-3.441,6.065,5.959,11.708,9.422,5.506,14.634-30.629,31.7-60.075,46.566-90.605,15.775-32.682,26.094-45.769-2.608-75.106,4.344-4.346,23.094-17.6,21.031-23.14" transform="translate(3150.972 1809.271)" fill="#464e53"/>
    <path id="Path_4142" data-name="Path 4142" d="M300.951,267.96c-7.653,14.17,55.317,21.775,65.009,41.428,1.806,2.331,5.817,1.9,7.715,0,7.53-10.906-22.923-25.84-31.258-28.752-11.772-4.5-23.368-7.836-34-14.631a5.523,5.523,0,0,0-7.464,1.957" transform="translate(3159.338 1808.272)" fill="#464e53"/>
    <path id="Path_4143" data-name="Path 4143" d="M412.767,787.341c-2.336-1.366-6.246-.741-7.464,1.957-15.612,23.75-104.451,43.182-133.7,44.9-18.131-115.917-23.386-234.621-14.176-351.6,7.863-74.958,48-147.033,35.417-223.5-1.914-5.581-.888-17.527-8.917-16.9.479-7.9.609-16,2.587-23.7,2.708-3.293,6.029-6.286,8.541-9.954,4.886-6.577,8.783-13.813,12.826-20.918,3.476-6.113-5.947-11.617-9.422-5.507C280.641,220.929,241.8,240.9,203.057,222.5c-16.252-6.929-26.92-22.241-32.834-38.4-1.92-6.76-12.515-3.884-10.521,2.9,5.97,16.417,15.922,32.492,31.392,41.408,1.743,4.752,1.544,9.967,2.142,14.975-8.637-8.282-48.659,36.48-52.63,45.243-6.978-3.558-32.925,14.269-41.1,17.979a5.457,5.457,0,0,0,5.507,9.423,376.231,376.231,0,0,1,35.256-18.21,4.425,4.425,0,0,0,2.274-2.611c4.15,2.8,7.814-.918,9.454-4.652a123.9,123.9,0,0,1,10.744-12.592c9.411-10,19.539-19.54,31.033-27.017a137.862,137.862,0,0,1-1.031,26.63c-.391,2.917.7,5.857,3.81,6.711,2.54.7,6.316-.87,6.711-3.81,2.311-15.353,1.876-30.865.006-46.242,23.052,10.475,49.634,6.97,70.752-6.282-1.206,17.1-2.638,35.4.979,52.1-22.919,15.776-75.8,37.361-88.587.488q1.95-6.609,4.14-13.149c2.226-6.676-8.307-9.54-10.521-2.9C148,365.7,151.878,473.8,149.754,578.784c.879,83.564-5.368,167.3-19.9,249.631a130.42,130.42,0,0,1-49.142-33.38c8.086-52.92,23.773-104.773,30.364-157.937.086-7-10.9-7.09-10.914,0-.781,12.111-3.051,24.008-5.7,35.831C86.195,708.8,78.184,744.758,72.364,781.12c-3.484-2.6-10.013.335-8.667,5.824,5.917,17.661,22.776,28.909,37.445,39.11,1.584,20.612,3.473,41.2,5.4,61.78.275,2.934,2.31,5.455,5.455,5.455,2.737,0,5.732-2.5,5.455-5.455-1.725-18.376-3.4-36.757-4.874-55.155,27.118,12.97,26.407,11.67,30.441-16.741,37.76,7.281,76.922,6.035,113.93-4.805,1.158,7.958,2.349,15.909,3.787,23.82-4.752.487-12.822-1.03-13.085,5.821-1.158,17.451,110.365-11.768,121.631-18.265-1.293,21.355.868,43.161.755,64.654-.044,8.572,13.345,8.623,13.3,0-.363-20.7-1.025-41.385-1.268-62.083a7,7,0,0,0-3.949-6.09c9.094-3.693,46.857-18.358,34.641-31.649M153.4,288.625c.229-.3.3-.38,0,0M241.721,228.7h-.006c-.525.073-.2.027.006,0M167.184,808.588c-7.548-.766-15.038-1.956-22.481-3.407,30.52-168.285-.213-341.956,37.437-509.122,23.951,30.836,77.167,9.682,102.64-9.768-.286,65.537-30.281,126.8-37.69,191.517-10.033,107.2-4.457,215.651,8.378,322.409a232.857,232.857,0,0,1-88.284,8.371" transform="translate(3127.46 1796.72)" fill="#464e53"/>
    <path id="Path_4144" data-name="Path 4144" d="M201.181,758.208c-1.729-6.805-12.344-3.935-10.52,2.9,2.614,16.79,5.376,33.558,8.121,50.328.475,2.909,4.087,4.532,6.71,3.81,3.092-.85,4.288-3.793,3.81-6.711-2.745-16.77-5.506-33.537-8.12-50.329" transform="translate(3144.549 1874.112)" fill="#d8dbd9"/>
    <path id="Path_4145" data-name="Path 4145" d="M110.686,584.42c-8.189-12.9-33.829,31.719-64.489.124C23.27,555.533,28.571,509.419,23.69,474.179c-2.237-27.592-5.01-55.165-5.7-82.854,23.745,5.838,48.493.678,71.653-5.4,2.553,29.348,5.307,58.69,6.971,88.1.489,8.765.907,17.549.849,26.33-.049,7.314,11.314,7.322,11.363,0-.885-47.177-6.031-94.377-10.363-141.283,2.678-9.4-7.561-8.066-13.349-6.4a259.277,259.277,0,0,1-1.448-30.9c1.688-12.5,9.752-25.088,8.834-38.161-3.836-16.791,4.691-76.138-27.135-58.726.293-2.789-2.351-5.116-4.7-6.053C54.22,202.7,42.933,207.665,32.744,217c-5.2,4.819-30.2,25.906-20.036,32.04a5.552,5.552,0,0,0,7.465-1.957,96.927,96.927,0,0,1,16.689-19.307,86.134,86.134,0,0,1,11.3-8.581,6.542,6.542,0,0,1,1.423,1.47c-6.523,3.5-12.214,8.363-17.9,13.06-5.06,4.891,2.685,12.675,7.715,7.714,5.244-4.3,10.478-8.974,16.714-11.765-3.676,2-7.021,5.292-7.778,9.282-3.931,1.3-11.927,3.532-12.54,8.2-.186,10.18,11.355,4.71,16.214,1.423a13.91,13.91,0,0,0,3.743,2.243,52.128,52.128,0,0,0-14.456,4.66c-6.94,4.734.686,13.553,7.129,8.673-1.191.388.078-.029.345-.135q1.453-.57,2.944-1.044a46.55,46.55,0,0,1,6.063-1.484c.262-.045,2.188-.42.757-.136,2.38-.613,3.4-.039,4.2,2.321-.09-.212-.179-.423-.269-.637.481,1.155,1.827,3.664-.189,4.147a5.141,5.141,0,0,0-3.727-4.044c-9.415-1.477-7.658,11.784-6.078,17.591,3.077,8.353,10.7,16.845,5.077,25.793-5.743,3.271-.47,14.171,6.827,8.5,10.584-10.465,5.215-25.724-1.247-36.777,14-1.878,13.946-19.986,3.517-26.456,15.727-1.25,13.376-15.662,3.112-12.268-3.295,1.636-6.883,2.417-10.349,1,3.646-2.673,8.9-4.307,12.8-6.948,1.009-.47,2.245-1.562,3.348-.91,2.965,6.407,3.56,13.21,3.747,20.315.309,12.046,2.6,24.6,2.245,36.536-2.682,11.088-8,21.7-8.818,33.17a218.924,218.924,0,0,0,1.6,31.62c-11.67,1.434-23.735,2.3-35.552,2.855.732-33.465.876-44.161-15.1-74.235C20,274.094,15.7,265.482,12.547,256.425a5.591,5.591,0,0,0-6.711-3.81c-2.7.743-4.782,3.916-3.81,6.711,6.931,20.219,18.35,38.692,24.948,59,1.73,12.872.511,26.95.869,40.09-4.247.478-10.917.016-10.924,6.112.547,8.11,10.462,5.468,15.812,4.535,18.259-1.493,36.962-2,55.084-5.366q.41,5.351.846,10.7c-19.571,5.507-40.106,9.64-60.5,7.462-4.1-.461-14.428-2.783-18.468-7.942a5.749,5.749,0,0,0-8.035,0c-4.472,4.679,1.088,9.855,5.089,12.38-.149,28.58,3.242,57.08,5.383,85.555,5.3,39.336-.475,85.243,24.257,118.71,19.533,24.388,49.874,18.578,72.261,1.625a5.811,5.811,0,0,0,2.039-7.771m-62.815-365.4c-.024-.027,0-.02.028,0l-.028,0m8.1,9.4a3.7,3.7,0,0,1-.8-.956,11.121,11.121,0,0,0,.8.956m5.387,32.755c-.01-.014,0,0,0,0a.4.4,0,0,1-.149-.057.617.617,0,0,1,.292.076l-.14-.019m-.256-.065.073.039-.253-.035c.061,0,.125-.006.18,0m.5.395c.109.1.18.186.155.209-.066-.09-.1-.141-.155-.209M58.8,241.364c-.039-.062,0-.155.065-.262a1.142,1.142,0,0,1-.065.262m.043-1.313c.1-.085.127.045.124.243-.132-.091-.2-.177-.124-.243" transform="translate(3118.909 1800.609)" fill="#464e53"/>
    <path id="Path_4146" data-name="Path 4146" d="M277.332,678.223l.03.026c-.007-.024-.017-.054-.031-.09l-.037-.026c.016.039.028.067.039.09" transform="translate(3156.24 1863.855)" fill="#464e53"/>
    <path id="Path_4147" data-name="Path 4147" d="M373.479,494.056a1.606,1.606,0,0,0-.3-.144c.1.047.193.106.3.144" transform="translate(3169.148 1839.055)" fill="#464e53"/>
    <path id="Path_4148" data-name="Path 4148" d="M365.307,317.04c33.909,50.242,54.642,107.374,79.52,162.251,3.416,6.088,12.962.65,9.421-5.509-19.207-41.6-34.981-84.817-57.135-125.011-6.988-12.692-14.506-25.082-22.385-37.24a5.574,5.574,0,0,0-7.464-1.956,5.514,5.514,0,0,0-1.957,7.464" transform="translate(3167.987 1814.141)" fill="#464e53"/>
    <path id="Path_4149" data-name="Path 4149" d="M474.027,470.127c-3.438-6.124-12.866-.629-9.421,5.508,2.672,4.945,3.545,10.658,3.929,16.207.529,47.407-15.923,93.71-33.7,137.082a113.1,113.1,0,0,0-54.007-33.818q14.051-51.157,26.256-102.8c1.863-6.79-8.712-9.728-10.521-2.9-1.1,4.643-2.223,9.279-3.341,13.916-1.382-.6-2.875-.913-4.288-1.439.061.033.1.051.18.1-.092-.067-.528-.234-.481-.244a4.926,4.926,0,0,1-1.549-1.061c.108.111-.483-.632-.607-.776-.116-.483-.346-1.332-.41-1.748.8-5.384-3.4-9.876-8.62-10.855,1-18.8-15.668-33.249-23.99-48.911-3.568-6.061-13.058-.554-9.423,5.509q4.037,6.195,8.069,12.393c-3.281,35.753-8.606,71.934-18.112,106.227q6.084,32.413,12.871,64.694c-30.055,11-62.6,20.513-85.485,44.069-6.018,5.378-1.97,14.733,3.477,18.912,5.3,3.086,11.522.405,16.632-2.033-5.764,6.946-13.921,14.286-12.428,24.181,1.41,7.553,10.374,13.162,17.78,11.09,4.794,13.618,27.062,6.563,22.694-3.488-4.534-5.754-7.264-1.034-11.832.329a.48.48,0,0,1-.128-.141,7.353,7.353,0,0,1-.674-.9c3.464-7.745,14.262-17.642,21.127-25.211,3.269-4.89,14-9.552,8.473-16.21-6.261-8-24.84,19.192-30.281,23.8-4.1,3.778-9.534,15.972-16.31,9.264.032.112-.033-.058-.091-.079,0-.019,0-.027.007-.048l.015.011-.012-.033c0-.022,0-.032.006-.052.017.036.032.075.045.11.311.216.1.015-.043-.134.73-8.966,25.228-31.328,32.716-38.72,4-4.047.361-15.421-6.811-11.535-10.721,6.212-20.751,14-31.969,19.218a19,19,0,0,1-3.107.99,18.317,18.317,0,0,1-1.182-2.047c16.063-16.333,37.584-25.411,58.83-32.9,11.3-4.229,22.611-8.482,34.117-12.114,8.035-3.171,2.067-14.287-5.16-9.792q-6.435-30.431-12.159-61c8.764-29.767,12.871-60.8,16.339-91.556,8.853,9.452.324,22.888,13.572,26.765.184,8.909,7.519,14.423,15.665,15.844q-9.7,39.558-20.5,78.839c-12.331-4.444-15.738,10.29-2.382,10.594a4.89,4.89,0,0,0,1.908,3.062c-2.07,2.8-.437,7.532,3.068,8.267,4.934,1.029,8.779,3.8,12.414,7.247,8.056,7.892,15.963,16.421,21.237,26.448C393.487,657.079,383,669,373.671,681.456c-5.645,8.336-14.773,14.264-23.966,18.1-8.346-1.805-17.177,17-26.634,19.529a1.593,1.593,0,0,0-.362-.239,12.67,12.67,0,0,1-.994-1c4.139-6.609,9.929-12.215,15.479-17.654-.517.374,1.714-.892.62-.437,9.325-3.943,1.518-22.217-16.6,1.283-4.984,5.858-14.321,13.668-9.192,21.988,6.648,11.964,19.513,5.841,26.913-1.775,3.766-3.265,7.021-7.064,10.566-10.56,5.765-.306,10.9-4.112,15.257-6.672,3.525,13.644,7.239,27.24,11.237,40.753,1.988,6.718,12.521,3.859,10.521-2.9-4.378-14.8-8.425-29.69-12.243-44.642,11.861-11.961,20.389-27.242,34.435-37.253-1.383,1.1,1.37-1.047,1.714-1.239-.174,10.081,11.813,11.487,11.329,1.325-3.787-21.407-19.976-39.429-36.833-52.231a100.4,100.4,0,0,1,44.948,31.88c-2.2,4.544-4.52,9.033-7.052,13.4-3.526,6.088,5.9,11.587,9.421,5.507,1.705-2.944,3.315-5.942,4.864-8.971,1.269,1.955,2.512,3.942,3.7,6,3.513,6.076,12.945.589,9.421-5.507a128.512,128.512,0,0,0-7.708-11.762c17.355-40.987,50.078-126.437,31.513-168.259M297.868,720.365c.292.034.177.067,0,0m-14.309-7.255c.272.05.53.171,0,0m-.722-.2c.15.081.226.129,0,0m-3.035-2c-.007.25-.052.436,0,0m0-.128c-.142-.125-.208-.193,0-.05l0,.05m-.066-.248c.019.006.042.041.066.084-.051-.053-.085-.091-.066-.084m2.047-5.563c-.154.2-.355.449,0,0m95.662-217.557c.336.108.019.443,0,0M321.152,717.039c-.034-.06-.077-.116-.11-.177.043-.008.078.069.11.177" transform="translate(3153.694 1831.226)" fill="#464e53"/>
    <path id="Path_4150" data-name="Path 4150" d="M417.464,445.472c.237-4.529-6.255-7.437-9.313-3.858-7.125,10.4-17.719,19.366-22.9,30.673-.235,4.529,6.256,7.437,9.314,3.858,7.125-10.4,17.718-19.367,22.9-30.673" transform="translate(3170.772 1831.798)" fill="#464e53"/>
    <path id="Path_4151" data-name="Path 4151" d="M402.133,491.749c6.673,3.213,25.182-8.62,12.889-14.2-3.561-1.067-6.076,2.3-9.187,3.378-5.485.591-9.155,7.4-3.7,10.822" transform="translate(3172.684 1836.824)" fill="#464e53"/>
    <path id="Path_4152" data-name="Path 4152" d="M356.173,315.416c-16.965,23.63-23.1,52.9-25.619,81.367-.235,2.645,2.424,4.911,4.91,4.911,2.85,0,4.675-2.258,4.909-4.911,2.375-26.827,8.316-54.177,24.279-76.411,3.288-5.389-5.24-10.443-8.479-4.956" transform="translate(3163.408 1814.706)" fill="#464e53"/>
  </g>
</svg>
