<svg xmlns="http://www.w3.org/2000/svg" xmlns:xlink="http://www.w3.org/1999/xlink" width="132" height="133" viewBox="0 0 132 133">
  <defs>
    <clipPath id="clip-path">
      <rect id="Rectangle_37" data-name="Rectangle 37" width="132" height="133" transform="translate(0.484 -0.074)" fill="#dd0a16"/>
    </clipPath>
  </defs>
  <g id="Group_17" data-name="Group 17" transform="translate(-0.484 0.074)">
    <g id="Group_6" data-name="Group 6" clip-path="url(#clip-path)">
      <path id="Path_1" data-name="Path 1" d="M119.564,111.276a3.658,3.658,0,0,1-2.223-.753L88.589,88.518a3.657,3.657,0,0,1-.681-5.127l9.78-12.779a3.658,3.658,0,0,1,5.127-.681l13.069,10,34.453-45.015a3.658,3.658,0,0,1,5.128-.681l12.778,9.78a3.657,3.657,0,0,1,.682,5.127l-46.456,60.7a3.661,3.661,0,0,1-2.9,1.435M95.939,84.932l22.943,17.56L160.892,47.6l-6.97-5.335L119.47,87.283a3.657,3.657,0,0,1-5.127.681l-13.069-10Z" transform="translate(-51.737 -19.876)" fill="#dd0a16"/>
      <path id="Path_2" data-name="Path 2" d="M157.657,32.917A3.657,3.657,0,0,1,154,29.259V3.657a3.657,3.657,0,0,1,7.315,0v25.6a3.657,3.657,0,0,1-3.657,3.657" transform="translate(-91.418)" fill="#dd0a16"/>
      <path id="Path_3" data-name="Path 3" d="M29.259,161.315H3.657a3.657,3.657,0,0,1,0-7.315h25.6a3.657,3.657,0,0,1,0,7.315" transform="translate(0 -91.418)" fill="#dd0a16"/>
      <path id="Path_4" data-name="Path 4" d="M274.259,161.315h-25.6a3.657,3.657,0,1,1,0-7.315h25.6a3.657,3.657,0,0,1,0,7.315" transform="translate(-145.438 -91.418)" fill="#dd0a16"/>
      <path id="Path_5" data-name="Path 5" d="M157.657,277.917A3.657,3.657,0,0,1,154,274.259v-25.6a3.657,3.657,0,0,1,7.315,0v25.6a3.657,3.657,0,0,1-3.657,3.657" transform="translate(-91.418 -145.438)" fill="#dd0a16"/>
      <path id="Path_6" data-name="Path 6" d="M91.172,140.343A49.172,49.172,0,1,1,109.7,45.611a3.657,3.657,0,0,1-2.758,6.775,41.8,41.8,0,1,0,24.153,26.166,3.657,3.657,0,0,1,6.975-2.2,49.207,49.207,0,0,1-46.9,63.995" transform="translate(-24.932 -24.932)" fill="#dd0a16"/>
    </g>
  </g>
</svg>
