<svg id="Group_16" data-name="Group 16" xmlns="http://www.w3.org/2000/svg" xmlns:xlink="http://www.w3.org/1999/xlink" width="128.795" height="121.829" viewBox="0 0 128.795 121.829">
  <defs>
    <clipPath id="clip-path">
      <rect id="Rectangle_40" data-name="Rectangle 40" width="128.795" height="121.829" fill="#dd0a16"/>
    </clipPath>
  </defs>
  <g id="Group_12" data-name="Group 12" clip-path="url(#clip-path)">
    <path id="Path_12" data-name="Path 12" d="M185.427,61.07,157.795,33.807a19.627,19.627,0,0,1,0-28.039,20.256,20.256,0,0,1,27.639-.605,20.09,20.09,0,0,1,3.425-2.485,20.3,20.3,0,0,1,21.483.83,19.385,19.385,0,0,1,2.741,2.266,19.547,19.547,0,0,1,5.886,14.014,18.308,18.308,0,0,1-.369,3.746A19.6,19.6,0,0,1,213.084,33.8ZM171.934,7.312a12.79,12.79,0,0,0-9,3.666,12.312,12.312,0,0,0,0,17.62l22.5,22.2,22.513-22.2a12.311,12.311,0,0,0,3.477-6.459l.013-.067a11.057,11.057,0,0,0,.222-2.285,12.291,12.291,0,0,0-3.711-8.81,12.147,12.147,0,0,0-1.728-1.431,12.946,12.946,0,0,0-13.7-.531,12.608,12.608,0,0,0-2.575,1.955l-4.52,4.438-4.48-4.439a12.807,12.807,0,0,0-9-3.658" transform="translate(-90.174 0)" fill="#dd0a16"/>
    <path id="Path_13" data-name="Path 13" d="M97.934,183.645c-3.931,0-12.514-1.617-26.242-4.942a89.591,89.591,0,0,0-21.059-2.527v-7.315h0a96.908,96.908,0,0,1,22.781,2.733c17.012,4.121,22.664,4.736,24.52,4.736a3.805,3.805,0,0,0,3.57-2.528l9.946-27.4a3.5,3.5,0,0,0,.254-1.267,3.794,3.794,0,0,0-2.9-3.7l-23.654-4.718,2.882-4.509c5.773-9.033,8.491-17.858,8.733-19.533a1.329,1.329,0,0,0-2.481-.556,75.176,75.176,0,0,1-12.868,16.495,37.085,37.085,0,0,1-25.681,10.216h-5.1v-7.315h5.1a29.8,29.8,0,0,0,20.639-8.2A67.932,67.932,0,0,0,87.982,108.4a8.643,8.643,0,0,1,16.1,4.365c0,2.28-2.516,10.328-7.192,18.833l13.526,2.7a11.078,11.078,0,0,1,8.6,10.832,10.656,10.656,0,0,1-.706,3.8l-9.945,27.4a11.213,11.213,0,0,1-10.433,7.314" transform="translate(-30.056 -61.815)" fill="#dd0a16"/>
    <path id="Path_14" data-name="Path 14" d="M24.233,212.738H3.657a3.657,3.657,0,0,1,0-7.315h13.26V160.457H3.657a3.657,3.657,0,0,1,0-7.315H24.233Z" transform="translate(0 -90.909)" fill="#dd0a16"/>
  </g>
</svg>
